Coordinates
version=1
nRows=49
nColumns=12
inDegrees=yes

Units are S.I. units (second, meters, Newtons, ...)
Angles are in degrees

endheader
time	SC_y	SC_z	SC_x	AC_y	AC_z	AC_x	GH_y	GH_z	GH_yy	EL_x	PS_y
       0.0              -33.52          26.84          18.23          48.65          4.121          12.36         -136.4           30.2         -27.87          13.97          8.875
  0.006797              -33.52          26.83          18.23          48.64          4.119          12.36         -136.4           30.2         -27.84          13.97          8.882
   0.01359              -33.52          26.83          18.24          48.64          4.116          12.36         -136.4          30.21         -27.81          13.97          8.888
   0.02039              -33.52          26.83          18.24          48.64          4.114          12.36         -136.3          30.21         -27.78          13.97          8.896
   0.02719              -33.52          26.83          18.25          48.64          4.111          12.36         -136.3          30.22         -27.74          13.97          8.903
   0.03398              -33.52          26.82          18.25          48.63          4.108          12.37         -136.3          30.22         -27.71          13.98          8.912
   0.04078              -33.52          26.82          18.26          48.63          4.105          12.37         -136.3          30.23         -27.67          13.98           8.92
   0.04758              -33.52          26.82          18.27          48.63          4.102          12.37         -136.2          30.23         -27.62          13.98           8.93
   0.05437              -33.52          26.81          18.27          48.62          4.098          12.37         -136.2          30.24         -27.58          13.98           8.94
   0.06117              -33.52          26.81          18.28          48.62          4.094          12.37         -136.2          30.25         -27.53          13.98          8.951
   0.06797              -33.52           26.8          18.29          48.62           4.09          12.37         -136.1          30.25         -27.48          13.98          8.962
   0.07476              -33.52           26.8           18.3          48.61          4.086          12.37         -136.1          30.26         -27.42          13.98          8.975
   0.08156              -33.51          26.79          18.31          48.61          4.081          12.37         -136.1          30.27         -27.36          13.98          8.988
   0.08836              -33.51          26.79          18.32           48.6          4.076          12.37         -136.0          30.28         -27.29          13.98          9.003
   0.09515              -33.51          26.78          18.33           48.6           4.07          12.37         -136.0          30.29         -27.22          13.98          9.018
    0.1019              -33.51          26.78          18.34          48.59          4.064          12.37         -135.9           30.3         -27.14          13.98          9.035
    0.1087              -33.51          26.77          18.35          48.58          4.058          12.38         -135.9          30.31         -27.06          13.98          9.054
    0.1155              -33.51          26.76          18.37          48.58          4.051          12.38         -135.8          30.32         -26.97          13.98          9.074
    0.1223              -33.51          26.75          18.38          48.57          4.043          12.38         -135.8          30.34         -26.87          13.98          9.096
    0.1291              -33.51          26.75           18.4          48.56          4.035          12.38         -135.7          30.35         -26.76          13.98           9.12
    0.1359              -33.51          26.74          18.42          48.55          4.025          12.38         -135.6          30.37         -26.64          13.99          9.147
    0.1427              -33.51          26.73          18.44          48.54          4.015          12.38         -135.5          30.39          -26.5          13.99          9.176
    0.1495              -33.51          26.71          18.46          48.53          4.004          12.39         -135.4          30.41         -26.36          13.99          9.208
    0.1563               -33.5           26.7          18.49          48.52          3.991          12.39         -135.3          30.43          -26.2          13.99          9.244
    0.1631               -33.5          26.69          18.51          48.51          3.977          12.39         -135.2          30.45         -26.02          13.99          9.284
    0.1699               -33.5          26.67          18.55          48.49          3.962          12.39         -135.1          30.48         -25.81          13.99          9.328
    0.1767               -33.5          26.65          18.58          48.47          3.944           12.4         -134.9          30.51         -25.59           14.0          9.378
    0.1835               -33.5          26.63          18.62          48.46          3.925           12.4         -134.8          30.55         -25.33           14.0          9.433
    0.1903              -33.49          26.61          18.66          48.43          3.902          12.41         -134.6          30.58         -25.05           14.0          9.496
    0.1971              -33.49          26.58          18.71          48.41          3.877          12.41         -134.4          30.63         -24.72           14.0          9.568
    0.2039              -33.49          26.55          18.77          48.38          3.848          12.42         -134.1          30.68         -24.35          14.01           9.65
    0.2107              -33.48          26.52          18.84          48.35          3.815          12.42         -133.9          30.74         -23.92          14.01          9.744
    0.2175              -33.48          26.48          18.91          48.31          3.777          12.43         -133.6          30.81         -23.43          14.02          9.852
    0.2243              -33.47          26.43           19.0          48.27          3.733          12.44         -133.2          30.88         -22.86          14.02          9.978
    0.2311              -33.47          26.38          19.11          48.22          3.681          12.45         -132.8          30.98         -22.19          14.03          10.12
    0.2379              -33.46          26.32          19.23          48.16           3.62          12.46         -132.3          31.08          -21.4          14.04           10.3
    0.2447              -33.45          26.24          19.37          48.09          3.548          12.48         -131.7          31.21         -20.46          14.04           10.5
    0.2515              -33.44          26.15          19.55          48.01          3.461           12.5         -130.9          31.37         -19.34          14.05          10.75
    0.2583              -33.43          26.04          19.76          47.91          3.356          12.52         -130.1          31.55         -17.98          14.07          11.05
    0.2651              -33.41          25.91          20.01          47.78          3.227          12.54         -129.0          31.78         -16.32          14.08          11.42
    0.2719               -33.4          25.74          20.33          47.63          3.069          12.58         -127.7          32.06         -14.27           14.1          11.87
    0.2787              -33.37          25.54          20.72          47.44          2.871          12.62         -126.1          32.41         -11.71          14.13          12.43
    0.2855              -33.34          25.28          21.22           47.2          2.622          12.67         -124.0          32.85         -8.487          14.16          13.14
    0.2923              -33.31          24.95          21.85          46.89          2.305          12.73         -121.4          33.41         -4.392           14.2          14.04
     0.299              -33.26          24.53          22.66           46.5            1.9          12.81         -118.1          34.13          0.849          14.25          15.19
    0.3058               -33.2          23.99           23.7           46.0           1.38          12.92         -113.8          35.05          7.575          14.31          16.67
    0.3126              -33.12           23.3          25.03          45.36          0.716          13.05         -108.3          36.22          16.17          14.39          18.56
    0.3194              -33.02          22.43           26.7          44.55        -0.1193          13.22         -101.4           37.7          26.97           14.5          20.93
    0.3262               -32.9          21.37          28.73          43.57         -1.137          13.43         -92.98           39.5          40.14          14.62          23.83
